<?xml version="1.0" encoding="UTF-8"?>
<svg id="Calque_1" data-name="Calque 1" xmlns="http://www.w3.org/2000/svg" viewBox="0 0 442.31 283.28">
  <defs>
    <style>
      .cls-1 {
        fill: #eb208e;
      }

      .cls-1, .cls-2, .cls-3 {
        stroke-width: 0px;
      }

      .cls-2 {
        fill: #fff;
      }

      .cls-3 {
        fill: #3adcd3;
      }
    </style>
  </defs>
  <path class="cls-2" d="M169.41,227.32h-36.35s11.52-16.08,11.52-16.08c-4.93-3.38-9.88-6.89-14.83-10.52l-.06-.04-.05-.04c-2.89-2.19-5.89-4.5-8.97-6.92h-53.4S5.72,279.58,5.72,279.58l235.76.04,9.66-13.47c-26.84-9.09-54.13-22.05-81.73-38.83ZM206.47,3.66l-25.05,34.95-4.72,6.58-5.68,7.92-4.97,6.95-38.77,54.08.08.06.02-.03h.01l38.76-54.08,4.98-6.95,5.67-7.9,4.71-6.58L206.6,3.66h-.13Z"/>
  <polygon class="cls-1" points="285.25 85.61 248.66 85.61 264.77 63.14 301.35 63.15 285.25 85.61"/>
  <path class="cls-3" d="M393.64,239.89c-.75,2.44-1.83,4.86-3.28,7.27-8.1,13.42-24.73,20.7-39.34,24.47-19.64,5.08-40.46,3.52-60.12-.62-34.52-7.27-67.39-22.09-98-39.32-32.13-18.09-62.57-39.54-90.12-64.06-21.65-19.27-43.46-41.1-56.98-67.07-1.9-3.65-3.61-7.41-5-11.29-1.23-3.44-10.05-30.04-.59-47.65,13.88-25.82,61.48-21.75,72.3-20.83,25.92,2.21,45.44,12.3,56.3,19.06-3.56,4.97-7.11,9.94-10.67,14.91-9.61-5.16-25.79-12.17-46.65-13.2-13.57-.67-35.96-1.78-43.22,10.49-7.51,12.69,5.35,32.63,12.33,43.43,10.41,16.13,23.62,26.84,50.83,47.22,14.38,10.77,25.47,19.02,43.7,31.08,30.83,20.39,63.02,39.18,96.79,54.28,16.22,7.25,32.68,14.48,50.1,18.32,14.84,3.28,34.77,6.25,46.83-5.29,18.6-17.8,2.24-43.03-9.41-59.74-13.42-19.24-30.42-35.61-47.35-51.7-.17-.16-.34-.32-.5-.48,12.69,6.57,24.05,16.32,34.54,25.9,13.68,12.5,26.55,26.38,36.54,42.05,8.22,12.89,15.56,28.01,10.99,42.78Z"/>
  <path class="cls-2" d="M296.23,85.74l21.07-29.38-58.72-.02-25.85,36.07,93.42,69.1-43.73,61c-4.91-2.01-9.64-4.04-14.15-6.02-18.27-8.26-35.87-17.1-52.73-26.45l4.73-6.6-92.91-69.24.02-.03h.01l38.76-54.08,4.98-6.95,5.67-7.9,4.71-6.58L206.6,3.66l230,.05-58.82,82.05-81.55-.02Z"/>
  <path class="cls-1" d="M75.68,161.49c-1.14,1.29-24.89-23.6-27.12-26.28-14.7-17.65-28.4-40.63-27.25-64.41,0,0,1-.03,1-.03.81,5.5,2.19,10.87,3.96,16.09,7.19,19.82,19.45,37.22,32.56,53.58,5.61,6.92,11.46,13.68,17.51,20.31,0,0-.66.75-.66.75Z"/>
</svg>